<?xml version="1.0" encoding="utf-8"?>
<!-- Generator: Adobe Illustrator 21.0.2, SVG Export Plug-In . SVG Version: 6.00 Build 0)  -->
<svg version="1.1" id="Layer_1" xmlns="http://www.w3.org/2000/svg" xmlns:xlink="http://www.w3.org/1999/xlink" x="0px" y="0px"
	 viewBox="0 0 56.7 56.7" style="enable-background:new 0 0 56.7 56.7;" xml:space="preserve">
<style type="text/css">
	.st0{fill:#074F57;}
</style>
<path class="st0" d="M46.9,26h7v4.6h-7V26 M2.8,26h7v4.6h-7V26 M30.7,2.8v7H26v-7H30.7 M11.9,8.6l4.9,5l-3.3,3.3l-4.9-4.9L11.9,8.6
	 M39.8,13.6l4.9-4.9l3.3,3.3l-4.9,4.9L39.8,13.6 M28.3,14.4c7.7,0,13.9,6.2,13.9,13.9c0,5.1-2.8,9.6-7,12.1v4.2c0,1.3-1,2.3-2.3,2.3
	h-9.3c-1.3,0-2.3-1-2.3-2.3v-4.2c-4.2-2.4-7-6.9-7-12.1C14.4,20.7,20.7,14.4,28.3,14.4 M33,49.2v2.3c0,1.3-1,2.3-2.3,2.3H26
	c-1.3,0-2.3-1-2.3-2.3v-2.3H33 M26,42.3h4.6v-4.9c4-1,7-4.7,7-9c0-5.1-4.2-9.3-9.3-9.3s-9.3,4.2-9.3,9.3c0,4.3,2.9,8,7,9V42.3z"/>
</svg>
